<svg xmlns="http://www.w3.org/2000/svg" xmlns:xlink="http://www.w3.org/1999/xlink" width="500" zoomAndPan="magnify" viewBox="0 0 375 374.999991" height="500" preserveAspectRatio="xMidYMid meet" version="1.0"><defs><g/><clipPath id="2c9089cf5c"><path d="M 19.589844 125.589844 L 163.589844 125.589844 L 163.589844 249.339844 L 19.589844 249.339844 Z M 19.589844 125.589844 " clip-rule="nonzero"/></clipPath></defs><g clip-path="url(#2c9089cf5c)"><path fill="#ffffff" d="M 66.066406 125.617188 L 104.945312 192.011719 L 90.992188 216.035156 L 84.824219 205.414062 L 92.570312 192.074219 L 60.554688 137.324219 L 38.726562 137.324219 L 91.472656 228.148438 L 144.21875 137.324219 L 122.410156 137.324219 L 101.066406 174.199219 L 72.632812 125.617188 L 85 125.617188 L 101.019531 152.984375 L 116.863281 125.617188 L 163.355469 125.617188 L 91.472656 249.394531 L 19.589844 125.617188 L 66.066406 125.617188 " fill-opacity="1" fill-rule="nonzero"/></g><g fill="#ffffff" fill-opacity="1"><g transform="translate(100.607511, 240.831219)"><g/></g></g><g fill="#ffffff" fill-opacity="1"><g transform="translate(114.796097, 240.831219)"><g><path d="M 23.5 -21.671875 C 23.738281 -21.671875 23.921875 -21.578125 24.046875 -21.390625 C 24.171875 -21.203125 24.171875 -20.929688 24.046875 -20.578125 C 24.003906 -20.472656 23.835938 -20.050781 23.546875 -19.3125 C 23.265625 -18.570312 22.898438 -17.625 22.453125 -16.46875 C 22.015625 -15.3125 21.53125 -14.046875 21 -12.671875 C 20.476562 -11.296875 19.953125 -9.925781 19.421875 -8.5625 C 18.898438 -7.207031 18.414062 -5.953125 17.96875 -4.796875 C 17.519531 -3.640625 17.15625 -2.695312 16.875 -1.96875 C 16.601562 -1.25 16.445312 -0.851562 16.40625 -0.78125 C 16.300781 -0.507812 16.1875 -0.3125 16.0625 -0.1875 C 15.9375 -0.0625 15.734375 0 15.453125 0 L 10.25 0 C 9.976562 0 9.773438 -0.0625 9.640625 -0.1875 C 9.503906 -0.3125 9.375 -0.507812 9.25 -0.78125 C 9.207031 -0.851562 9.046875 -1.25 8.765625 -1.96875 C 8.492188 -2.695312 8.132812 -3.632812 7.6875 -4.78125 C 7.25 -5.925781 6.765625 -7.179688 6.234375 -8.546875 C 5.710938 -9.910156 5.191406 -11.273438 4.671875 -12.640625 C 4.160156 -14.015625 3.679688 -15.28125 3.234375 -16.4375 C 2.785156 -17.59375 2.414062 -18.546875 2.125 -19.296875 C 1.84375 -20.046875 1.679688 -20.472656 1.640625 -20.578125 C 1.515625 -20.929688 1.507812 -21.203125 1.625 -21.390625 C 1.738281 -21.578125 1.929688 -21.671875 2.203125 -21.671875 L 7.25 -21.671875 C 7.695312 -21.671875 8 -21.585938 8.15625 -21.421875 C 8.3125 -21.253906 8.460938 -20.960938 8.609375 -20.546875 C 8.671875 -20.421875 8.832031 -19.957031 9.09375 -19.15625 C 9.363281 -18.351562 9.703125 -17.34375 10.109375 -16.125 C 10.523438 -14.90625 10.972656 -13.582031 11.453125 -12.15625 C 11.929688 -10.738281 12.394531 -9.347656 12.84375 -7.984375 C 13.300781 -9.347656 13.765625 -10.738281 14.234375 -12.15625 C 14.710938 -13.582031 15.148438 -14.90625 15.546875 -16.125 C 15.953125 -17.34375 16.289062 -18.351562 16.5625 -19.15625 C 16.832031 -19.957031 17 -20.421875 17.0625 -20.546875 C 17.21875 -20.960938 17.375 -21.253906 17.53125 -21.421875 C 17.6875 -21.585938 17.992188 -21.671875 18.453125 -21.671875 Z M 23.5 -21.671875 "/></g></g></g><g fill="#ffffff" fill-opacity="1"><g transform="translate(145.12879, 240.831219)"><g><path d="M 7.15625 -21.671875 C 7.375 -21.671875 7.554688 -21.597656 7.703125 -21.453125 C 7.847656 -21.304688 7.921875 -21.117188 7.921875 -20.890625 L 7.921875 -0.78125 C 7.921875 -0.570312 7.847656 -0.390625 7.703125 -0.234375 C 7.554688 -0.078125 7.375 0 7.15625 0 L 2.328125 0 C 2.117188 0 1.9375 -0.078125 1.78125 -0.234375 C 1.625 -0.390625 1.546875 -0.570312 1.546875 -0.78125 L 1.546875 -20.890625 C 1.546875 -21.117188 1.625 -21.304688 1.78125 -21.453125 C 1.9375 -21.597656 2.117188 -21.671875 2.328125 -21.671875 Z M 7.15625 -21.671875 "/></g></g></g><g fill="#ffffff" fill-opacity="1"><g transform="translate(159.243027, 240.831219)"><g><path d="M 18.078125 -8.328125 C 18.179688 -8.617188 18.40625 -8.765625 18.75 -8.765625 L 23.59375 -8.765625 C 23.8125 -8.765625 23.957031 -8.675781 24.03125 -8.5 C 24.101562 -8.320312 24.117188 -8.128906 24.078125 -7.921875 C 23.691406 -6.273438 22.972656 -4.828125 21.921875 -3.578125 C 20.878906 -2.328125 19.609375 -1.359375 18.109375 -0.671875 C 16.617188 0.00390625 14.96875 0.34375 13.15625 0.34375 C 11.582031 0.34375 10.09375 0.0546875 8.6875 -0.515625 C 7.289062 -1.097656 6.054688 -1.90625 4.984375 -2.9375 C 3.910156 -3.96875 3.066406 -5.160156 2.453125 -6.515625 C 1.847656 -7.867188 1.546875 -9.316406 1.546875 -10.859375 C 1.546875 -12.410156 1.847656 -13.859375 2.453125 -15.203125 C 3.066406 -16.554688 3.910156 -17.742188 4.984375 -18.765625 C 6.054688 -19.796875 7.289062 -20.597656 8.6875 -21.171875 C 10.09375 -21.742188 11.582031 -22.03125 13.15625 -22.03125 C 14.945312 -22.03125 16.585938 -21.695312 18.078125 -21.03125 C 19.566406 -20.363281 20.832031 -19.421875 21.875 -18.203125 C 22.914062 -16.984375 23.640625 -15.546875 24.046875 -13.890625 C 24.085938 -13.691406 24.078125 -13.507812 24.015625 -13.34375 C 23.953125 -13.175781 23.8125 -13.09375 23.59375 -13.09375 L 18.703125 -13.09375 C 18.515625 -13.09375 18.367188 -13.140625 18.265625 -13.234375 C 18.160156 -13.328125 18.085938 -13.414062 18.046875 -13.5 C 17.609375 -14.550781 16.976562 -15.328125 16.15625 -15.828125 C 15.332031 -16.335938 14.332031 -16.59375 13.15625 -16.59375 C 12.125 -16.59375 11.203125 -16.335938 10.390625 -15.828125 C 9.585938 -15.328125 8.957031 -14.640625 8.5 -13.765625 C 8.050781 -12.898438 7.828125 -11.929688 7.828125 -10.859375 C 7.828125 -9.785156 8.050781 -8.816406 8.5 -7.953125 C 8.957031 -7.085938 9.585938 -6.398438 10.390625 -5.890625 C 11.203125 -5.390625 12.125 -5.140625 13.15625 -5.140625 C 14.351562 -5.140625 15.367188 -5.398438 16.203125 -5.921875 C 17.035156 -6.453125 17.660156 -7.253906 18.078125 -8.328125 Z M 18.078125 -8.328125 "/></g></g></g><g fill="#ffffff" fill-opacity="1"><g transform="translate(189.544763, 240.831219)"><g><path d="M 19.53125 -21.671875 C 19.757812 -21.671875 19.945312 -21.59375 20.09375 -21.4375 C 20.238281 -21.28125 20.3125 -21.097656 20.3125 -20.890625 L 20.3125 -17.109375 C 20.3125 -16.910156 20.238281 -16.734375 20.09375 -16.578125 C 19.945312 -16.421875 19.757812 -16.34375 19.53125 -16.34375 L 14.109375 -16.34375 L 14.109375 -0.78125 C 14.109375 -0.570312 14.035156 -0.390625 13.890625 -0.234375 C 13.753906 -0.078125 13.570312 0 13.34375 0 L 8.515625 0 C 8.304688 0 8.125 -0.078125 7.96875 -0.234375 C 7.8125 -0.390625 7.734375 -0.570312 7.734375 -0.78125 L 7.734375 -16.34375 L 2.328125 -16.34375 C 2.117188 -16.34375 1.9375 -16.421875 1.78125 -16.578125 C 1.625 -16.734375 1.546875 -16.910156 1.546875 -17.109375 L 1.546875 -20.890625 C 1.546875 -21.097656 1.625 -21.28125 1.78125 -21.4375 C 1.9375 -21.59375 2.117188 -21.671875 2.328125 -21.671875 Z M 19.53125 -21.671875 "/></g></g></g><g fill="#ffffff" fill-opacity="1"><g transform="translate(216.039491, 240.831219)"><g><path d="M 13.15625 -22.03125 C 14.71875 -22.03125 16.203125 -21.742188 17.609375 -21.171875 C 19.015625 -20.597656 20.253906 -19.789062 21.328125 -18.75 C 22.398438 -17.71875 23.238281 -16.523438 23.84375 -15.171875 C 24.457031 -13.828125 24.765625 -12.378906 24.765625 -10.828125 C 24.765625 -9.285156 24.457031 -7.835938 23.84375 -6.484375 C 23.238281 -5.128906 22.398438 -3.9375 21.328125 -2.90625 C 20.253906 -1.875 19.015625 -1.066406 17.609375 -0.484375 C 16.203125 0.0859375 14.71875 0.375 13.15625 0.375 C 11.582031 0.375 10.09375 0.0859375 8.6875 -0.484375 C 7.289062 -1.066406 6.054688 -1.875 4.984375 -2.90625 C 3.910156 -3.9375 3.066406 -5.128906 2.453125 -6.484375 C 1.847656 -7.835938 1.546875 -9.285156 1.546875 -10.828125 C 1.546875 -12.378906 1.847656 -13.828125 2.453125 -15.171875 C 3.066406 -16.523438 3.910156 -17.71875 4.984375 -18.75 C 6.054688 -19.789062 7.289062 -20.597656 8.6875 -21.171875 C 10.09375 -21.742188 11.582031 -22.03125 13.15625 -22.03125 Z M 13.15625 -5.109375 C 14.164062 -5.109375 15.082031 -5.363281 15.90625 -5.875 C 16.726562 -6.394531 17.390625 -7.085938 17.890625 -7.953125 C 18.390625 -8.816406 18.640625 -9.773438 18.640625 -10.828125 C 18.640625 -11.878906 18.390625 -12.832031 17.890625 -13.6875 C 17.390625 -14.550781 16.726562 -15.238281 15.90625 -15.75 C 15.082031 -16.269531 14.164062 -16.53125 13.15625 -16.53125 C 12.144531 -16.53125 11.21875 -16.269531 10.375 -15.75 C 9.539062 -15.238281 8.875 -14.550781 8.375 -13.6875 C 7.882812 -12.832031 7.640625 -11.878906 7.640625 -10.828125 C 7.640625 -9.773438 7.882812 -8.816406 8.375 -7.953125 C 8.875 -7.085938 9.539062 -6.394531 10.375 -5.875 C 11.21875 -5.363281 12.144531 -5.109375 13.15625 -5.109375 Z M 13.15625 -5.109375 "/></g></g></g><g fill="#ffffff" fill-opacity="1"><g transform="translate(246.991212, 240.831219)"><g><path d="M 20.03125 -1.015625 C 20.175781 -0.773438 20.210938 -0.546875 20.140625 -0.328125 C 20.066406 -0.109375 19.84375 0 19.46875 0 L 13.984375 0 C 13.722656 0 13.488281 -0.0820312 13.28125 -0.25 C 13.070312 -0.414062 12.914062 -0.59375 12.8125 -0.78125 C 12.769531 -0.851562 12.578125 -1.191406 12.234375 -1.796875 C 11.898438 -2.410156 11.492188 -3.15625 11.015625 -4.03125 C 10.546875 -4.914062 10.070312 -5.78125 9.59375 -6.625 L 7.921875 -6.625 L 7.921875 -0.78125 C 7.921875 -0.570312 7.847656 -0.390625 7.703125 -0.234375 C 7.554688 -0.078125 7.375 0 7.15625 0 L 2.328125 0 C 2.117188 0 1.9375 -0.078125 1.78125 -0.234375 C 1.625 -0.390625 1.546875 -0.570312 1.546875 -0.78125 L 1.546875 -20.890625 C 1.546875 -21.117188 1.625 -21.304688 1.78125 -21.453125 C 1.9375 -21.597656 2.117188 -21.671875 2.328125 -21.671875 L 11.046875 -21.671875 C 13.566406 -21.671875 15.535156 -20.984375 16.953125 -19.609375 C 18.378906 -18.234375 19.09375 -16.390625 19.09375 -14.078125 C 19.09375 -12.742188 18.832031 -11.539062 18.3125 -10.46875 C 17.800781 -9.394531 17.03125 -8.535156 16 -7.890625 C 16.375 -7.273438 16.773438 -6.585938 17.203125 -5.828125 C 17.640625 -5.078125 18.0625 -4.347656 18.46875 -3.640625 C 18.882812 -2.941406 19.234375 -2.351562 19.515625 -1.875 C 19.796875 -1.40625 19.96875 -1.117188 20.03125 -1.015625 Z M 13.375 -14.109375 C 13.375 -14.421875 13.285156 -14.765625 13.109375 -15.140625 C 12.929688 -15.523438 12.660156 -15.851562 12.296875 -16.125 C 11.941406 -16.394531 11.460938 -16.53125 10.859375 -16.53125 L 7.921875 -16.53125 L 7.921875 -11.765625 L 10.921875 -11.765625 C 11.484375 -11.765625 11.941406 -11.890625 12.296875 -12.140625 C 12.660156 -12.398438 12.929688 -12.71875 13.109375 -13.09375 C 13.285156 -13.46875 13.375 -13.804688 13.375 -14.109375 Z M 13.375 -14.109375 "/></g></g></g><g fill="#ffffff" fill-opacity="1"><g transform="translate(273.362148, 240.831219)"><g/></g></g><g fill="#ffffff" fill-opacity="1"><g transform="translate(287.538282, 240.831219)"><g><path d="M 10.25 -21.671875 C 12.757812 -21.671875 14.828125 -21.34375 16.453125 -20.6875 C 18.085938 -20.039062 19.375 -19.1875 20.3125 -18.125 C 21.257812 -17.0625 21.921875 -15.894531 22.296875 -14.625 C 22.679688 -13.351562 22.875 -12.097656 22.875 -10.859375 C 22.875 -8.566406 22.335938 -6.609375 21.265625 -4.984375 C 20.191406 -3.367188 18.6875 -2.132812 16.75 -1.28125 C 14.820312 -0.425781 12.570312 0 10 0 L 2.328125 0 C 2.117188 0 1.9375 -0.078125 1.78125 -0.234375 C 1.625 -0.390625 1.546875 -0.570312 1.546875 -0.78125 L 1.546875 -20.890625 C 1.546875 -21.117188 1.625 -21.304688 1.78125 -21.453125 C 1.9375 -21.597656 2.117188 -21.671875 2.328125 -21.671875 Z M 10.734375 -5.328125 C 12.054688 -5.328125 13.132812 -5.578125 13.96875 -6.078125 C 14.8125 -6.585938 15.425781 -7.253906 15.8125 -8.078125 C 16.207031 -8.898438 16.40625 -9.804688 16.40625 -10.796875 C 16.40625 -11.710938 16.226562 -12.59375 15.875 -13.4375 C 15.53125 -14.28125 14.941406 -14.972656 14.109375 -15.515625 C 13.285156 -16.066406 12.160156 -16.34375 10.734375 -16.34375 L 7.921875 -16.34375 L 7.921875 -5.328125 Z M 10.734375 -5.328125 "/></g></g></g><g fill="#ffffff" fill-opacity="1"><g transform="translate(316.60196, 240.831219)"><g><path d="M 16.5625 -5.328125 C 16.789062 -5.328125 16.972656 -5.253906 17.109375 -5.109375 C 17.253906 -4.960938 17.328125 -4.773438 17.328125 -4.546875 L 17.328125 -0.78125 C 17.328125 -0.570312 17.253906 -0.390625 17.109375 -0.234375 C 16.972656 -0.078125 16.789062 0 16.5625 0 L 2.328125 0 C 2.117188 0 1.9375 -0.078125 1.78125 -0.234375 C 1.625 -0.390625 1.546875 -0.570312 1.546875 -0.78125 L 1.546875 -20.890625 C 1.546875 -21.117188 1.625 -21.304688 1.78125 -21.453125 C 1.9375 -21.597656 2.117188 -21.671875 2.328125 -21.671875 L 16.46875 -21.671875 C 16.675781 -21.671875 16.851562 -21.597656 17 -21.453125 C 17.15625 -21.304688 17.234375 -21.117188 17.234375 -20.890625 L 17.234375 -17.109375 C 17.234375 -16.910156 17.15625 -16.734375 17 -16.578125 C 16.851562 -16.421875 16.675781 -16.34375 16.46875 -16.34375 L 7.921875 -16.34375 L 7.921875 -13.5 L 14.859375 -13.5 C 15.066406 -13.5 15.242188 -13.425781 15.390625 -13.28125 C 15.546875 -13.132812 15.625 -12.945312 15.625 -12.71875 L 15.625 -8.953125 C 15.625 -8.742188 15.546875 -8.5625 15.390625 -8.40625 C 15.242188 -8.25 15.066406 -8.171875 14.859375 -8.171875 L 7.921875 -8.171875 L 7.921875 -5.328125 Z M 16.5625 -5.328125 "/></g></g></g><g fill="#ffffff" fill-opacity="1"><g transform="translate(340.12538, 240.831219)"><g><path d="M 23.5 -21.671875 C 23.738281 -21.671875 23.921875 -21.578125 24.046875 -21.390625 C 24.171875 -21.203125 24.171875 -20.929688 24.046875 -20.578125 C 24.003906 -20.472656 23.835938 -20.050781 23.546875 -19.3125 C 23.265625 -18.570312 22.898438 -17.625 22.453125 -16.46875 C 22.015625 -15.3125 21.53125 -14.046875 21 -12.671875 C 20.476562 -11.296875 19.953125 -9.925781 19.421875 -8.5625 C 18.898438 -7.207031 18.414062 -5.953125 17.96875 -4.796875 C 17.519531 -3.640625 17.15625 -2.695312 16.875 -1.96875 C 16.601562 -1.25 16.445312 -0.851562 16.40625 -0.78125 C 16.300781 -0.507812 16.1875 -0.3125 16.0625 -0.1875 C 15.9375 -0.0625 15.734375 0 15.453125 0 L 10.25 0 C 9.976562 0 9.773438 -0.0625 9.640625 -0.1875 C 9.503906 -0.3125 9.375 -0.507812 9.25 -0.78125 C 9.207031 -0.851562 9.046875 -1.25 8.765625 -1.96875 C 8.492188 -2.695312 8.132812 -3.632812 7.6875 -4.78125 C 7.25 -5.925781 6.765625 -7.179688 6.234375 -8.546875 C 5.710938 -9.910156 5.191406 -11.273438 4.671875 -12.640625 C 4.160156 -14.015625 3.679688 -15.28125 3.234375 -16.4375 C 2.785156 -17.59375 2.414062 -18.546875 2.125 -19.296875 C 1.84375 -20.046875 1.679688 -20.472656 1.640625 -20.578125 C 1.515625 -20.929688 1.507812 -21.203125 1.625 -21.390625 C 1.738281 -21.578125 1.929688 -21.671875 2.203125 -21.671875 L 7.25 -21.671875 C 7.695312 -21.671875 8 -21.585938 8.15625 -21.421875 C 8.3125 -21.253906 8.460938 -20.960938 8.609375 -20.546875 C 8.671875 -20.421875 8.832031 -19.957031 9.09375 -19.15625 C 9.363281 -18.351562 9.703125 -17.34375 10.109375 -16.125 C 10.523438 -14.90625 10.972656 -13.582031 11.453125 -12.15625 C 11.929688 -10.738281 12.394531 -9.347656 12.84375 -7.984375 C 13.300781 -9.347656 13.765625 -10.738281 14.234375 -12.15625 C 14.710938 -13.582031 15.148438 -14.90625 15.546875 -16.125 C 15.953125 -17.34375 16.289062 -18.351562 16.5625 -19.15625 C 16.832031 -19.957031 17 -20.421875 17.0625 -20.546875 C 17.21875 -20.960938 17.375 -21.253906 17.53125 -21.421875 C 17.6875 -21.585938 17.992188 -21.671875 18.453125 -21.671875 Z M 23.5 -21.671875 "/></g></g></g></svg>